<svg xmlns="http://www.w3.org/2000/svg" viewBox="-6592.602 1317.162 17.221 17.54"><defs><style>.a{fill:#f4d309;}</style></defs><path class="a" d="M0,0-3.478,1.42l-.328-.279A6.8,6.8,0,0,0-7.472-.64l-.711-.032.348-4.506.725.006A9,9,0,0,1-3.6-4.259,21.752,21.752,0,0,1,.687-11.436l.5-.552,3.378,2.9-.5.552a17.087,17.087,0,0,0-4,8.1ZM-3.143-.242-1.31-.989a18.984,18.984,0,0,1,3.815-7.9L1.269-9.953A20.449,20.449,0,0,0-2.494-3.045l-.285.9-.805-.448a9.22,9.22,0,0,0-2.9-1.066l-.13,1.685A8.709,8.709,0,0,1-3.143-.242" transform="translate(-6584.585 1331.486) rotate(25)"/></svg>