<svg xmlns="http://www.w3.org/2000/svg" viewBox="-7534.983 3652.116 270 188.609"><defs><style>.a{fill:#2e3192;}.b{fill:#fcaf17;}.c{fill:#f26522;}</style></defs><g transform="translate(-7867.523 3400.416)"><g transform="translate(332.54 251.7)"><path class="a" d="M527.032,363.419A13.56,13.56,0,1,0,513.5,349.887,13.488,13.488,0,0,0,527.032,363.419Z" transform="translate(-412.73 -289.19)"/><path class="a" d="M597.229,479.9a13.677,13.677,0,0,0-12.529,8.353h24.947A13.669,13.669,0,0,0,597.229,479.9Z" transform="translate(-444.282 -352.824)"/><path class="a" d="M725.687,507.119A13.56,13.56,0,1,0,712.1,493.587,13.488,13.488,0,0,0,725.687,507.119Z" transform="translate(-500.738 -352.869)"/><path class="a" d="M764.028,347.7a7.156,7.156,0,1,0,7.183,7.183A7.118,7.118,0,0,0,764.028,347.7Z" transform="translate(-520.59 -294.241)"/><path class="a" d="M515.391,285.947a11.3,11.3,0,0,0-.78-4.121,20.659,20.659,0,1,0-38.256-15.035c-.278,0-.557-.056-.835-.056H460.373a11.557,11.557,0,0,0-9.857,5.513c-1.225-.111-2.45-.167-3.731-.167a40.126,40.126,0,0,0-22.776,7.072,13.982,13.982,0,0,0-1.782-1.392l-13.086-8.074a11.556,11.556,0,0,0-15.926,3.787l-13.086,21.161-13.086-21.161a11.556,11.556,0,0,0-15.926-3.787l-13.086,8.074a11.528,11.528,0,0,0-3.731,15.926L370.106,351.6l-10.19,4.566a11.641,11.641,0,0,0-5.9,15.258L379.8,430.118a11.511,11.511,0,0,0,10.58,6.905h0a11.5,11.5,0,0,0,10.58-6.961l8.241-18.878,8.242,18.878a11.562,11.562,0,0,0,10.58,6.961h0a11.542,11.542,0,0,0,10.58-6.905l8.075-18.432a40.334,40.334,0,0,0,38.535,28.623h2.283a11.574,11.574,0,0,0,11.583-11.583V413.914h7.462a11.454,11.454,0,0,0,3.285,7.072l10.525,10.636a11.889,11.889,0,0,0,8.186,3.453h0a11.594,11.594,0,0,0,8.186-3.4l2.951-2.951a39.693,39.693,0,0,0,17.652,4.065,40.289,40.289,0,1,0,0-80.578c-.668,0-1.336,0-2,.056v-5.346a11.859,11.859,0,0,0,3.4-.668,11.586,11.586,0,0,0,7.462-8.965,27.1,27.1,0,0,0,9.3,1.838,11.577,11.577,0,0,0,7.518,2.784h7.963a11.574,11.574,0,0,0,11.583-11.583V294.523a11.574,11.574,0,0,0-11.583-11.583h-7.963a11.374,11.374,0,0,0-7.573,2.84,25.954,25.954,0,0,0-13.309,3.842A11.714,11.714,0,0,0,554.761,287H546.8a11.738,11.738,0,0,0-5.736,1.5l-5.29-6.348a11.434,11.434,0,0,0-8.91-4.176,12.278,12.278,0,0,0-3.954.668,11.617,11.617,0,0,0-7.629,10.914Z" transform="translate(-332.54 -251.7)"/></g><g transform="translate(344.156 263.227)"><path class="b" d="M389.429,338.887,412.372,301.8l13.086,8.074-36.029,58.248L353.4,309.874l13.086-8.074Z" transform="translate(-353.4 -285.428)"/><path class="b" d="M543.712,299.5v68.048H528.566v-8.8a27,27,0,0,1-13.587,3.564,28.706,28.706,0,0,1,0-57.412,26.853,26.853,0,0,1,13.587,3.564v-8.91h15.147Zm-42.266,34.08a13.56,13.56,0,1,0,13.532-13.587A13.44,13.44,0,0,0,501.447,333.58Z" transform="translate(-412.293 -284.409)"/><path class="b" d="M619.377,290.554a9.077,9.077,0,1,1,9.077-9.077A9.043,9.043,0,0,1,619.377,290.554Zm7.518,57.412H611.748v-52.9h15.147Z" transform="translate(-467.242 -272.4)"/><g transform="translate(20.437 82.026)"><path class="b" d="M415.938,462.8l18.878-43.1,18.878,43.1,12.14-27.732,13.587,6.07-25.783,58.693-18.878-43.1-18.878,43.1L390.1,441.139l13.587-6.07Z" transform="translate(-390.1 -419.7)"/><path class="b" d="M584.178,502.651h2.283v15.035h-2.283A28.638,28.638,0,0,1,555.5,489.007v-7.629a28.706,28.706,0,0,1,57.412,0v9.912h-42.1A13.758,13.758,0,0,0,584.178,502.651Zm.111-34.8A13.677,13.677,0,0,0,571.76,476.2h24.947A13.669,13.669,0,0,0,584.29,467.847Z" transform="translate(-463.395 -434.324)"/><path class="b" d="M705.259,439.506A28.706,28.706,0,1,1,686.1,489.568l-9.578,9.634L666,488.565l10.525-10.525V422.8h15.147v20.214A27.393,27.393,0,0,1,705.259,439.506ZM691.671,468.3a13.587,13.587,0,1,0,13.587-13.587A13.523,13.523,0,0,0,691.671,468.3Z" transform="translate(-512.362 -421.074)"/></g></g><g transform="translate(527.029 289.344)"><path class="c" d="M709.7,365.241l-19.936-24.056v14.98H681.8V319.3l19.936,24.056v-14.98H709.7Z" transform="translate(-681.8 -319.3)"/><path class="c" d="M772.838,328.256v35.806h-7.963V359.44a14.649,14.649,0,0,1-7.184,1.838,15.119,15.119,0,0,1,0-30.238,14.649,14.649,0,0,1,7.184,1.838V328.2h7.963Zm-22.219,17.987a7.156,7.156,0,1,0,7.128-7.183A7.106,7.106,0,0,0,750.619,346.242Z" transform="translate(-708.743 -323.244)"/></g></g></svg>